<svg width="201" height="47" viewBox="0 0 201 47" fill="none" xmlns="http://www.w3.org/2000/svg">
<mask id="path-1-outside-1_109_16940" maskUnits="userSpaceOnUse" x="12.0847" y="13.5811" width="21" height="23" fill="black">
<rect fill="white" x="12.0847" y="13.5811" width="21" height="23"/>
<path d="M31.8108 21.9852C31.8108 21.7958 31.7367 21.6064 31.5884 21.4582L24.8688 14.7962C24.5806 14.508 24.1112 14.508 23.823 14.8044C23.5347 15.0927 23.5347 15.562 23.8312 15.8503L30.3285 22.2982V32.1141C30.3285 33.3658 29.3074 34.3869 28.0557 34.3869H25.5358V30.006C25.5358 28.3837 24.2182 27.0661 22.596 27.0661H22.2995C20.6772 27.0661 19.3597 28.3837 19.3597 30.006V34.3869H16.8398C15.5881 34.3869 14.567 33.3658 14.567 32.1141V21.9852H13.0847V32.1141C13.0847 34.1893 14.7729 35.8692 16.8398 35.8692H28.0474C30.1226 35.8692 31.8025 34.181 31.8025 32.1141L31.8108 21.9852ZM20.8419 34.3869V30.006C20.8419 29.2072 21.4925 28.5484 22.2995 28.5484H22.596C23.3947 28.5484 24.0535 29.199 24.0535 30.006V34.3869H20.8419Z"/>
</mask>
<path d="M31.8108 21.9852C31.8108 21.7958 31.7367 21.6064 31.5884 21.4582L24.8688 14.7962C24.5806 14.508 24.1112 14.508 23.823 14.8044C23.5347 15.0927 23.5347 15.562 23.8312 15.8503L30.3285 22.2982V32.1141C30.3285 33.3658 29.3074 34.3869 28.0557 34.3869H25.5358V30.006C25.5358 28.3837 24.2182 27.0661 22.596 27.0661H22.2995C20.6772 27.0661 19.3597 28.3837 19.3597 30.006V34.3869H16.8398C15.5881 34.3869 14.567 33.3658 14.567 32.1141V21.9852H13.0847V32.1141C13.0847 34.1893 14.7729 35.8692 16.8398 35.8692H28.0474C30.1226 35.8692 31.8025 34.181 31.8025 32.1141L31.8108 21.9852ZM20.8419 34.3869V30.006C20.8419 29.2072 21.4925 28.5484 22.2995 28.5484H22.596C23.3947 28.5484 24.0535 29.199 24.0535 30.006V34.3869H20.8419Z" fill="#00856F"/>
<path d="M31.8108 21.9852L32.1355 21.9855V21.9852H31.8108ZM31.5884 21.4582L31.818 21.2286L31.817 21.2276L31.5884 21.4582ZM24.8688 14.7962L24.6392 15.0258L24.6402 15.0268L24.8688 14.7962ZM23.823 14.8044L24.0526 15.034L24.0558 15.0308L23.823 14.8044ZM23.8312 15.8503L24.0599 15.6198L24.0575 15.6175L23.8312 15.8503ZM30.3285 22.2982H30.6532V22.1629L30.5572 22.0677L30.3285 22.2982ZM25.5358 34.3869H25.2111V34.7116H25.5358V34.3869ZM19.3597 34.3869V34.7116H19.6844V34.3869H19.3597ZM14.567 21.9852H14.8917V21.6605H14.567V21.9852ZM13.0847 21.9852V21.6605H12.76V21.9852H13.0847ZM31.8025 32.1141L31.4778 32.1138V32.1141H31.8025ZM20.8419 34.3869H20.5173V34.7116H20.8419V34.3869ZM24.0535 34.3869V34.7116H24.3782V34.3869H24.0535ZM32.1355 21.9852C32.1355 21.7099 32.0273 21.4378 31.818 21.2286L31.3588 21.6878C31.4461 21.775 31.4861 21.8818 31.4861 21.9852H32.1355ZM31.817 21.2276L25.0974 14.5656L24.6402 15.0268L31.3598 21.6888L31.817 21.2276ZM25.0984 14.5666C24.6828 14.151 24.0053 14.1511 23.5902 14.5781L24.0558 15.0308C24.217 14.8649 24.4783 14.8649 24.6392 15.0258L25.0984 14.5666ZM23.5934 14.5748C23.1778 14.9904 23.1778 15.6679 23.6049 16.0831L24.0575 15.6175C23.8916 15.4562 23.8917 15.1949 24.0526 15.034L23.5934 14.5748ZM23.6025 16.0807L30.0998 22.5286L30.5572 22.0677L24.0599 15.6198L23.6025 16.0807ZM30.0038 22.2982V32.1141H30.6532V22.2982H30.0038ZM30.0038 32.1141C30.0038 33.1865 29.128 34.0622 28.0557 34.0622V34.7116C29.4867 34.7116 30.6532 33.5451 30.6532 32.1141H30.0038ZM28.0557 34.0622H25.5358V34.7116H28.0557V34.0622ZM25.8605 34.3869V30.006H25.2111V34.3869H25.8605ZM25.8605 30.006C25.8605 28.2044 24.3976 26.7414 22.596 26.7414V27.3908C24.0389 27.3908 25.2111 28.563 25.2111 30.006H25.8605ZM22.596 26.7414H22.2995V27.3908H22.596V26.7414ZM22.2995 26.7414C20.4979 26.7414 19.035 28.2044 19.035 30.006H19.6844C19.6844 28.563 20.8566 27.3908 22.2995 27.3908V26.7414ZM19.035 30.006V34.3869H19.6844V30.006H19.035ZM19.3597 34.0622H16.8398V34.7116H19.3597V34.0622ZM16.8398 34.0622C15.7674 34.0622 14.8917 33.1865 14.8917 32.1141H14.2423C14.2423 33.5451 15.4088 34.7116 16.8398 34.7116V34.0622ZM14.8917 32.1141V21.9852H14.2423V32.1141H14.8917ZM14.567 21.6605H13.0847V22.3099H14.567V21.6605ZM12.76 21.9852V32.1141H13.4094V21.9852H12.76ZM12.76 32.1141C12.76 34.3691 14.594 36.1939 16.8398 36.1939V35.5445C14.9517 35.5445 13.4094 34.0095 13.4094 32.1141H12.76ZM28.0474 36.1939C30.3024 36.1939 32.1272 34.3599 32.1272 32.1141H31.4778C31.4778 34.0022 29.9428 35.5445 28.0474 35.5445V36.1939ZM32.1272 32.1144L32.1355 21.9855L31.4861 21.985L31.4778 32.1138L32.1272 32.1144ZM21.1666 34.3869V30.006H20.5173V34.3869H21.1666ZM21.1666 30.006C21.1666 29.3853 21.673 28.8731 22.2995 28.8731V28.2237C21.312 28.2237 20.5173 29.0291 20.5173 30.006H21.1666ZM22.2995 28.8731H22.596V28.2237H22.2995V28.8731ZM22.596 28.8731C23.2166 28.8731 23.7288 29.3795 23.7288 30.006H24.3782C24.3782 29.0184 23.5729 28.2237 22.596 28.2237V28.8731ZM23.7288 30.006V34.3869H24.3782V30.006H23.7288ZM24.0535 34.0622H20.8419V34.7116H24.0535V34.0622ZM16.8398 36.1939H28.0474V35.5445H16.8398V36.1939Z" fill="#00856F" mask="url(#path-1-outside-1_109_16940)"/>
<path d="M9.27347 24.4965C7.32181 24.4965 5.44427 23.7307 4.01964 22.3061C2.61148 20.8979 1.8374 19.0286 1.8374 17.0357C1.8374 15.0429 2.61148 13.1736 4.01964 11.7654L5.06546 12.8113C3.93729 13.9394 3.31968 15.4382 3.31968 17.0357C3.31968 18.6333 3.93729 20.132 5.06546 21.2602C6.54774 22.7425 8.65586 23.3354 10.6899 22.8413C11.7522 22.586 12.7321 22.0343 13.5062 21.2602L21.9469 12.9348L22.9845 13.9889L14.5602 22.3143C13.5885 23.286 12.378 23.9695 11.044 24.2906C10.4511 24.4306 9.85814 24.4965 9.27347 24.4965Z" fill="#FF752C"/>
<path fill-rule="evenodd" clip-rule="evenodd" d="M4.01962 11.3063L5.52462 12.8113L5.29503 13.0409C4.22811 14.1078 3.64434 15.5238 3.64434 17.0358C3.64434 18.5477 4.22811 19.9637 5.29503 21.0306C6.69739 22.433 8.68952 22.9931 10.6132 22.5258C11.6167 22.2847 12.5444 21.7628 13.2766 21.0306L13.2782 21.0291L21.9503 12.4754L23.4432 13.992L14.7898 22.5439C14.7896 22.5441 14.7893 22.5444 14.7891 22.5446C13.7758 23.5577 12.5126 24.2711 11.1199 24.6063L11.1186 24.6067C10.5006 24.7526 9.88261 24.8212 9.27345 24.8212C7.23554 24.8212 5.27545 24.0211 3.79003 22.5357C2.32094 21.0666 1.5127 19.1146 1.5127 17.0358C1.5127 14.9569 2.32094 13.005 3.79003 11.5359L4.01962 11.3063ZM14.5602 22.3143L22.9843 13.9891L21.9473 12.9352L13.5062 21.2602C12.7321 22.0343 11.7521 22.586 10.6898 22.8413C8.65584 23.3354 6.54772 22.7425 5.06544 21.2602C3.93727 20.1321 3.31966 18.6333 3.31966 17.0358C3.31966 15.4382 3.93727 13.9395 5.06544 12.8113L4.01962 11.7655C3.94282 11.8423 3.8679 11.9204 3.7949 11.9999C2.52933 13.3779 1.83738 15.1516 1.83738 17.0358C1.83738 19.0286 2.61146 20.8979 4.01962 22.3061C5.44425 23.7307 7.32179 24.4965 9.27345 24.4965C9.85812 24.4965 10.451 24.4307 11.0439 24.2907C12.378 23.9695 13.5885 23.286 14.5602 22.3143Z" fill="#FF752C"/>
<path d="M22.4682 46.648C21.5624 46.648 20.7142 46.2939 20.0719 45.6516L4.01392 29.5937C1.63405 27.2138 0.324707 24.0516 0.324707 20.6836C0.324707 17.3155 1.63405 14.1533 4.01392 11.7735C6.23733 9.55004 9.1854 8.24894 12.3229 8.10071C15.4439 7.95248 18.4825 8.95713 20.8871 10.9253C21.2 11.1805 21.2495 11.6499 20.9942 11.9711C20.7389 12.284 20.2695 12.3334 19.9484 12.0781C15.518 8.45481 9.11953 8.77597 5.05975 12.8357C2.95986 14.9192 1.80698 17.7108 1.80698 20.6836C1.80698 23.6563 2.95986 26.448 5.05975 28.5478L21.1177 44.6058C21.8588 45.3469 23.0694 45.3469 23.8105 44.6058L39.8355 28.589C44.167 24.2575 44.167 17.2002 39.8355 12.8687C37.7356 10.7688 34.944 9.61592 31.9712 9.61592C28.9984 9.61592 26.2068 10.7688 24.107 12.8687L22.987 13.9886C22.6988 14.2768 22.2294 14.2768 21.9412 13.9886C21.653 13.7004 21.653 13.231 21.9412 12.9428L23.0611 11.8229C27.9773 6.90666 35.9651 6.90666 40.8813 11.8229C45.7975 16.7391 45.7975 24.7269 40.8813 29.6431L24.8646 45.6516C24.2305 46.2939 23.3741 46.648 22.4682 46.648Z" fill="#FF752C"/>
<path fill-rule="evenodd" clip-rule="evenodd" d="M40.8813 29.6431L24.8645 45.6517C24.2304 46.294 23.374 46.6481 22.4682 46.6481C21.5624 46.6481 20.7142 46.294 20.0719 45.6517L4.0139 29.5937C1.63403 27.2138 0.324688 24.0517 0.324688 20.6836C0.324688 17.3155 1.63403 14.1534 4.0139 11.7735C6.23731 9.55008 9.18538 8.24897 12.3229 8.10075C15.4439 7.95252 18.4825 8.95717 20.8871 10.9253C21.2 11.1806 21.2494 11.65 20.9942 11.9711C20.7389 12.2841 20.2695 12.3335 19.9483 12.0782C15.518 8.45485 9.1195 8.776 5.05973 12.8358C2.95984 14.9192 1.80696 17.7108 1.80696 20.6836C1.80696 23.6564 2.95984 26.448 5.05973 28.5479L21.1177 44.6058C21.8588 45.347 23.0693 45.347 23.8105 44.6058L39.8355 28.5891C44.167 24.2575 44.167 17.2003 39.8355 12.8687C37.7356 10.7688 34.944 9.61596 31.9712 9.61596C28.9984 9.61596 26.2068 10.7688 24.1069 12.8687L22.987 13.9887C22.6988 14.2769 22.2294 14.2769 21.9412 13.9887C21.6529 13.7004 21.6529 13.2311 21.9412 12.9428L23.0611 11.8229C27.9773 6.90669 35.9651 6.90669 40.8813 11.8229C45.7975 16.7391 45.7975 24.7269 40.8813 29.6431ZM39.606 28.3594C43.8106 24.1547 43.8106 17.303 39.6059 13.0983C37.5671 11.0595 34.8582 9.94065 31.9712 9.94065C29.0842 9.94065 26.3753 11.0595 24.3365 13.0983L23.2166 14.2183C22.8016 14.6333 22.1266 14.6333 21.7116 14.2183C21.2966 13.8032 21.2966 13.1283 21.7116 12.7132L22.8315 11.5933C27.8745 6.55031 36.0679 6.55031 41.1109 11.5933C46.1539 16.6363 46.1539 24.8297 41.1109 29.8727L25.0956 45.8798L25.0949 45.8805C24.3991 46.5849 23.4594 46.9728 22.4682 46.9728C21.4754 46.9728 20.5449 46.5839 19.8423 45.8813L3.78431 29.8233C1.3435 27.3825 0 24.1377 0 20.6836C0 17.2295 1.3435 13.9847 3.78431 11.5439C6.06493 9.26328 9.08941 7.92848 12.3075 7.77642M39.606 28.3594L23.5809 44.3762C22.9666 44.9905 21.9616 44.9906 21.3473 44.3762L5.28932 28.3183C3.25054 26.2795 2.13165 23.5706 2.13165 20.6836C2.13165 17.7964 3.25066 15.088 5.28841 13.0663L5.28932 13.0654C9.23145 9.12324 15.4418 8.81203 19.7428 12.3295L19.7463 12.3324C20.2044 12.6965 20.8764 12.6291 21.2457 12.1764L21.2483 12.1732C21.6124 11.7152 21.5452 11.0435 21.0928 10.674C18.6259 8.65495 15.5084 7.62442 12.3075 7.77642" fill="#FF752C"/>
<path d="M14.4216 5.86492C17.887 5.86492 21.578 8.40649 22.4361 9.49561C23.2942 8.40649 27.0294 6.00653 30.4947 6.00653L28.9379 1.93777C22.7002 -0.537506 16.0004 1.93777 16.0004 1.93777L14.4216 5.86492Z" fill="#00856F"/>
<path d="M24.683 3.93679H22.9998V2.2536H21.8777V3.93679H20.2275V5.05891H21.8777V6.7421H22.9998V5.05891H24.683V3.93679Z" fill="white"/>
<path d="M53.1104 24.9471V8.43186H56.1089V15.3191H64.6125V8.43186H67.611V24.9471H64.6125V17.8256H56.1089V24.9471H53.1104ZM75.0004 25.1813C73.8135 25.1813 72.7828 24.9393 71.9082 24.4551C71.0336 23.971 70.3543 23.2838 69.8702 22.3937C69.386 21.4879 69.144 20.4259 69.144 19.2078C69.144 17.9896 69.386 16.9354 69.8702 16.0453C70.3543 15.1551 71.0336 14.4679 71.9082 13.9838C72.7828 13.4997 73.8135 13.2576 75.0004 13.2576C76.1873 13.2576 77.2181 13.4997 78.0926 13.9838C78.9672 14.4679 79.6465 15.1551 80.1307 16.0453C80.6148 16.9354 80.8569 17.9896 80.8569 19.2078C80.8569 20.4259 80.6148 21.4879 80.1307 22.3937C79.6465 23.2838 78.9672 23.971 78.0926 24.4551C77.2181 24.9393 76.1873 25.1813 75.0004 25.1813ZM75.0004 22.9559C75.875 22.9559 76.5778 22.6435 77.1087 22.0189C77.6397 21.3785 77.9052 20.4415 77.9052 19.2078C77.9052 17.9584 77.6397 17.0291 77.1087 16.4201C76.5778 15.7954 75.875 15.483 75.0004 15.483C74.1259 15.483 73.4231 15.7954 72.8921 16.4201C72.3611 17.0291 72.0956 17.9584 72.0956 19.2078C72.0956 20.4415 72.3611 21.3785 72.8921 22.0189C73.4231 22.6435 74.1259 22.9559 75.0004 22.9559ZM82.1493 24.9471V13.4918H85.0073V15.2488C85.3509 14.6241 85.8272 14.14 86.4363 13.7964C87.0453 13.4372 87.7481 13.2576 88.5446 13.2576C90.2625 13.2576 91.3869 14.0072 91.9179 15.5065C92.2771 14.8037 92.7925 14.2571 93.464 13.8667C94.1356 13.4606 94.9008 13.2576 95.7597 13.2576C98.3366 13.2576 99.625 14.8271 99.625 17.9662V24.9471H96.6968V18.0833C96.6968 17.2087 96.5484 16.5684 96.2517 16.1624C95.9706 15.7563 95.4864 15.5533 94.7993 15.5533C94.034 15.5533 93.4328 15.8266 92.9955 16.3732C92.5582 16.9042 92.3396 17.646 92.3396 18.5987V24.9471H89.4113V18.0833C89.4113 17.2087 89.263 16.5684 88.9662 16.1624C88.6851 15.7563 88.2088 15.5533 87.5373 15.5533C86.772 15.5533 86.1708 15.8266 85.7335 16.3732C85.2962 16.9042 85.0776 17.646 85.0776 18.5987V24.9471H82.1493ZM107.12 25.1813C105.824 25.1813 104.707 24.9393 103.77 24.4551C102.833 23.971 102.107 23.2838 101.592 22.3937C101.092 21.5035 100.842 20.4493 100.842 19.2312C100.842 18.0443 101.084 17.0057 101.568 16.1155C102.068 15.2254 102.747 14.5304 103.606 14.0306C104.481 13.5153 105.473 13.2576 106.581 13.2576C108.206 13.2576 109.486 13.773 110.423 14.8037C111.376 15.8344 111.852 17.24 111.852 19.0203V19.8871H103.653C103.872 21.933 105.043 22.9559 107.167 22.9559C107.807 22.9559 108.448 22.8622 109.088 22.6748C109.728 22.4718 110.314 22.1594 110.845 21.7377L111.665 23.7055C111.118 24.1584 110.431 24.5176 109.603 24.7831C108.776 25.0486 107.948 25.1813 107.12 25.1813ZM106.699 15.2488C105.84 15.2488 105.145 15.5143 104.614 16.0453C104.083 16.5762 103.762 17.2946 103.653 18.2004H109.416C109.353 17.2478 109.088 16.5216 108.619 16.0218C108.167 15.5065 107.526 15.2488 106.699 15.2488ZM113.281 24.9471V8.43186H115.53L124.408 19.9574V8.43186H127.196V24.9471H124.97L116.069 13.3747V24.9471H113.281ZM133.499 25.1813C130.687 25.1813 129.282 23.604 129.282 20.4493V13.4918H132.21V20.4962C132.21 21.3083 132.374 21.9095 132.702 22.3C133.03 22.6904 133.553 22.8856 134.272 22.8856C135.053 22.8856 135.693 22.6201 136.193 22.0891C136.692 21.5425 136.942 20.8241 136.942 19.934V13.4918H139.87V24.9471H137.012V23.237C136.247 24.5332 135.076 25.1813 133.499 25.1813ZM141.747 24.9471V13.4918H144.605V15.5065C145.167 14.1478 146.37 13.3981 148.212 13.2576L149.103 13.1873L149.29 15.6704L147.603 15.8344C145.682 16.0218 144.722 17.0057 144.722 18.7861V24.9471H141.747ZM153.828 25.1813C152.86 25.1813 151.954 25.0642 151.111 24.83C150.267 24.5957 149.565 24.2599 149.002 23.8226L149.752 21.9017C150.33 22.2922 150.978 22.5967 151.696 22.8153C152.415 23.0184 153.133 23.1199 153.851 23.1199C154.601 23.1199 155.155 22.9949 155.515 22.7451C155.89 22.4796 156.077 22.136 156.077 21.7143C156.077 21.0584 155.593 20.6367 154.625 20.4493L152.282 20.0042C150.299 19.6294 149.307 18.5987 149.307 16.912C149.307 16.1624 149.51 15.5143 149.916 14.9677C150.338 14.4211 150.915 13.9994 151.649 13.7027C152.383 13.4059 153.227 13.2576 154.179 13.2576C154.992 13.2576 155.772 13.3747 156.522 13.609C157.272 13.8276 157.912 14.1634 158.443 14.6163L157.646 16.5372C157.194 16.1624 156.647 15.8657 156.007 15.647C155.382 15.4284 154.781 15.3191 154.203 15.3191C153.438 15.3191 152.868 15.4518 152.493 15.7173C152.134 15.9828 151.954 16.3342 151.954 16.7715C151.954 17.4586 152.399 17.8803 153.289 18.0365L155.632 18.4815C156.647 18.669 157.412 19.0125 157.928 19.5123C158.459 20.012 158.724 20.6836 158.724 21.5269C158.724 22.667 158.279 23.565 157.389 24.2209C156.499 24.8612 155.312 25.1813 153.828 25.1813ZM165.548 25.1813C164.251 25.1813 163.135 24.9393 162.198 24.4551C161.261 23.971 160.534 23.2838 160.019 22.3937C159.519 21.5035 159.269 20.4493 159.269 19.2312C159.269 18.0443 159.511 17.0057 159.996 16.1155C160.495 15.2254 161.175 14.5304 162.034 14.0306C162.908 13.5153 163.9 13.2576 165.009 13.2576C166.633 13.2576 167.914 13.773 168.851 14.8037C169.803 15.8344 170.28 17.24 170.28 19.0203V19.8871H162.081C162.299 21.933 163.47 22.9559 165.594 22.9559C166.235 22.9559 166.875 22.8622 167.515 22.6748C168.156 22.4718 168.741 22.1594 169.272 21.7377L170.092 23.7055C169.546 24.1584 168.858 24.5176 168.031 24.7831C167.203 25.0486 166.375 25.1813 165.548 25.1813ZM165.126 15.2488C164.267 15.2488 163.572 15.5143 163.041 16.0453C162.51 16.5762 162.19 17.2946 162.081 18.2004H167.843C167.781 17.2478 167.515 16.5216 167.047 16.0218C166.594 15.5065 165.954 15.2488 165.126 15.2488ZM191.447 25.1813C189.183 25.1813 187.449 24.5957 186.247 23.4244C185.06 22.2375 184.466 20.4884 184.466 18.177V8.43186H187.465V18.1536C187.465 19.6372 187.801 20.7539 188.472 21.5035C189.159 22.2375 190.151 22.6045 191.447 22.6045C194.087 22.6045 195.406 21.1209 195.406 18.1536V8.43186H198.381V18.177C198.381 20.4884 197.796 22.2375 196.624 23.4244C195.453 24.5957 193.727 25.1813 191.447 25.1813Z" fill="#00856F"/>
<path d="M178.08 24.9471V21.808H170.888V19.606L178.596 8.43186H181.079V19.3249H183.398V21.808H181.079V24.9471H178.08ZM178.08 19.3249V13.0233L173.77 19.3249H178.08Z" fill="#FF752C"/>
<path d="M54.332 40.8633V33.5024H51.3543V32.4662H58.5365V33.5024H55.5588V40.8633H54.332ZM57.9193 40.8633V35.0508H59.0865V36.0871C59.3883 35.3962 60.0156 35.0111 60.9684 34.9317L61.3615 34.9079L61.4448 35.9322L60.7183 36.0037C59.6622 36.1069 59.1342 36.6508 59.1342 37.6355V40.8633H57.9193ZM61.6598 33.7049V32.4543H63.0653V33.7049H61.6598ZM61.767 40.8633V35.0508H62.97V40.8633H61.767ZM65.9258 40.9705C65.5208 40.9705 65.1595 40.8911 64.8419 40.7323C64.5243 40.5735 64.2702 40.3591 64.0796 40.0891C63.897 39.8191 63.8057 39.5134 63.8057 39.172C63.8057 38.7432 63.9129 38.4057 64.1273 38.1595C64.3496 37.9134 64.7109 37.7347 65.2112 37.6236C65.7194 37.5124 66.4022 37.4568 67.2598 37.4568H67.6648V37.1471C67.6648 36.6945 67.5695 36.369 67.3789 36.1704C67.1883 35.9719 66.8747 35.8727 66.438 35.8727C66.1045 35.8727 65.771 35.9243 65.4375 36.0275C65.104 36.1228 64.7625 36.2776 64.4131 36.492L64.0439 35.6464C64.3456 35.432 64.7228 35.2612 65.1754 35.1342C65.628 35.0072 66.0608 34.9436 66.4737 34.9436C67.2678 34.9436 67.8554 35.1342 68.2365 35.5153C68.6176 35.8886 68.8082 36.4761 68.8082 37.2781V40.8633H67.6767V39.8985C67.5338 40.232 67.3114 40.494 67.0097 40.6846C66.7079 40.8752 66.3467 40.9705 65.9258 40.9705ZM66.164 40.1129C66.5928 40.1129 66.9501 39.962 67.236 39.6603C67.5218 39.3586 67.6648 38.9774 67.6648 38.5169V38.1953H67.2717C66.6921 38.1953 66.2355 38.2231 65.902 38.2786C65.5764 38.3342 65.3422 38.4295 65.1992 38.5645C65.0643 38.6916 64.9968 38.8702 64.9968 39.1005C64.9968 39.4022 65.1 39.6484 65.3064 39.839C65.5129 40.0216 65.7988 40.1129 66.164 40.1129ZM71.7634 40.9705C71.1281 40.9705 70.6517 40.7918 70.3341 40.4345C70.0244 40.0772 69.8696 39.5531 69.8696 38.8623V32.4662H71.0726V38.7908C71.0726 39.5769 71.3942 39.97 72.0373 39.97C72.1326 39.97 72.22 39.966 72.2994 39.9581C72.3867 39.9501 72.4741 39.9342 72.5614 39.9104L72.5376 40.8752C72.2676 40.9387 72.0095 40.9705 71.7634 40.9705ZM74.8933 40.9705C74.4169 40.9705 73.9722 40.9109 73.5593 40.7918C73.1464 40.6648 72.801 40.4901 72.5231 40.2677L72.8685 39.4578C73.1623 39.6643 73.4839 39.8231 73.8333 39.9342C74.1906 40.0454 74.5479 40.101 74.9052 40.101C75.3261 40.101 75.6437 40.0256 75.8581 39.8747C76.0725 39.7238 76.1797 39.5213 76.1797 39.2672C76.1797 39.0608 76.1082 38.902 75.9653 38.7908C75.8224 38.6717 75.608 38.5804 75.3221 38.5169L74.1906 38.2906C73.1901 38.0841 72.6898 37.568 72.6898 36.7422C72.6898 36.1943 72.9082 35.7575 73.3449 35.432C73.7816 35.1064 74.3534 34.9436 75.0601 34.9436C75.465 34.9436 75.8501 35.0032 76.2154 35.1223C76.5886 35.2414 76.8983 35.4201 77.1444 35.6583L76.799 36.4682C76.5608 36.2618 76.2869 36.1029 75.9772 35.9918C75.6675 35.8806 75.3618 35.825 75.0601 35.825C74.6472 35.825 74.3335 35.9044 74.1191 36.0632C73.9047 36.2141 73.7975 36.4206 73.7975 36.6826C73.7975 37.0796 74.0596 37.3337 74.5836 37.4449L75.7152 37.6712C76.2313 37.7744 76.6204 37.9491 76.8824 38.1953C77.1524 38.4414 77.2874 38.7749 77.2874 39.1958C77.2874 39.7516 77.069 40.1883 76.6323 40.506C76.1956 40.8156 75.6159 40.9705 74.8933 40.9705ZM82.4218 40.9705C82.0168 40.9705 81.6555 40.8911 81.3379 40.7323C81.0203 40.5735 80.7662 40.3591 80.5756 40.0891C80.393 39.8191 80.3016 39.5134 80.3016 39.172C80.3016 38.7432 80.4088 38.4057 80.6232 38.1595C80.8456 37.9134 81.2069 37.7347 81.7071 37.6236C82.2153 37.5124 82.8982 37.4568 83.7558 37.4568H84.1607V37.1471C84.1607 36.6945 84.0654 36.369 83.8749 36.1704C83.6843 35.9719 83.3706 35.8727 82.9339 35.8727C82.6004 35.8727 82.2669 35.9243 81.9334 36.0275C81.5999 36.1228 81.2585 36.2776 80.9091 36.492L80.5399 35.6464C80.8416 35.432 81.2188 35.2612 81.6714 35.1342C82.124 35.0072 82.5567 34.9436 82.9697 34.9436C83.7637 34.9436 84.3513 35.1342 84.7324 35.5153C85.1136 35.8886 85.3042 36.4761 85.3042 37.2781V40.8633H84.1726V39.8985C84.0297 40.232 83.8074 40.494 83.5056 40.6846C83.2039 40.8752 82.8426 40.9705 82.4218 40.9705ZM82.66 40.1129C83.0888 40.1129 83.4461 39.962 83.7319 39.6603C84.0178 39.3586 84.1607 38.9774 84.1607 38.5169V38.1953H83.7677C83.188 38.1953 82.7314 38.2231 82.3979 38.2786C82.0724 38.3342 81.8381 38.4295 81.6952 38.5645C81.5602 38.6916 81.4927 38.8702 81.4927 39.1005C81.4927 39.4022 81.5959 39.6484 81.8024 39.839C82.0088 40.0216 82.2947 40.1129 82.66 40.1129ZM88.843 40.9705C88.1124 40.9705 87.5685 40.7839 87.2112 40.4107C86.8539 40.0375 86.6752 39.4975 86.6752 38.7908V35.9799H85.5437V35.0508H86.6752V33.2999H87.8782V35.0508H89.6767V35.9799H87.8782V38.6955C87.8782 39.1164 87.9655 39.434 88.1402 39.6484C88.3229 39.8628 88.6167 39.97 89.0216 39.97C89.1487 39.97 89.2718 39.9581 89.3909 39.9342C89.51 39.9025 89.6291 39.8667 89.7482 39.827L89.9388 40.7323C89.8196 40.8037 89.6529 40.8593 89.4385 40.899C89.232 40.9467 89.0335 40.9705 88.843 40.9705ZM93.2491 43.0072L94.2853 40.7084L91.8556 35.0508H93.1419L94.9285 39.4697L96.739 35.0508H97.9777L94.5117 43.0072H93.2491ZM100.666 40.9705C100.079 40.9705 99.5707 40.8474 99.1419 40.6012C98.7131 40.3551 98.3796 40.0097 98.1414 39.565C97.9111 39.1124 97.796 38.5764 97.796 37.9571C97.796 37.3377 97.9111 36.8057 98.1414 36.361C98.3796 35.9084 98.7131 35.559 99.1419 35.3129C99.5707 35.0667 100.079 34.9436 100.666 34.9436C101.238 34.9436 101.738 35.0667 102.167 35.3129C102.596 35.559 102.929 35.9084 103.168 36.361C103.406 36.8057 103.525 37.3377 103.525 37.9571C103.525 38.5764 103.406 39.1124 103.168 39.565C102.929 40.0097 102.596 40.3551 102.167 40.6012C101.738 40.8474 101.238 40.9705 100.666 40.9705ZM100.666 40.0414C101.159 40.0414 101.556 39.8628 101.858 39.5055C102.159 39.1481 102.31 38.632 102.31 37.9571C102.31 37.2821 102.159 36.7699 101.858 36.4206C101.556 36.0632 101.159 35.8846 100.666 35.8846C100.166 35.8846 99.7652 36.0632 99.4635 36.4206C99.1617 36.7699 99.0109 37.2821 99.0109 37.9571C99.0109 38.632 99.1617 39.1481 99.4635 39.5055C99.7652 39.8628 100.166 40.0414 100.666 40.0414ZM106.353 40.9705C104.948 40.9705 104.245 40.1883 104.245 38.6241V35.0508H105.448V38.636C105.448 39.1045 105.543 39.4499 105.734 39.6722C105.924 39.8945 106.226 40.0057 106.639 40.0057C107.091 40.0057 107.457 39.8548 107.735 39.5531C108.021 39.2514 108.163 38.8464 108.163 38.3382V35.0508H109.366V40.8633H108.199V39.9342C108.009 40.2757 107.755 40.5337 107.437 40.7084C107.119 40.8831 106.758 40.9705 106.353 40.9705ZM110.466 40.8633V35.0508H111.633V36.0871C111.935 35.3962 112.563 35.0111 113.515 34.9317L113.908 34.9079L113.992 35.9322L113.265 36.0037C112.209 36.1069 111.681 36.6508 111.681 37.6355V40.8633H110.466ZM119.063 40.9705C118.555 40.9705 118.106 40.8514 117.717 40.6132C117.336 40.367 117.038 40.0176 116.823 39.565C116.609 39.1124 116.502 38.5764 116.502 37.9571C116.502 37.3377 116.609 36.8057 116.823 36.361C117.038 35.9084 117.336 35.559 117.717 35.3129C118.098 35.0667 118.547 34.9436 119.063 34.9436C119.499 34.9436 119.889 35.0389 120.23 35.2295C120.571 35.4201 120.826 35.6781 120.992 36.0037V32.4662H122.195V40.8633H121.016V39.8509C120.849 40.2002 120.591 40.4742 120.242 40.6727C119.9 40.8712 119.507 40.9705 119.063 40.9705ZM119.372 40.0414C119.865 40.0414 120.262 39.8628 120.563 39.5055C120.865 39.1481 121.016 38.632 121.016 37.9571C121.016 37.2821 120.865 36.7699 120.563 36.4206C120.262 36.0632 119.865 35.8846 119.372 35.8846C118.872 35.8846 118.471 36.0632 118.169 36.4206C117.868 36.7699 117.717 37.2821 117.717 37.9571C117.717 38.632 117.868 39.1481 118.169 39.5055C118.471 39.8628 118.872 40.0414 119.372 40.0414ZM125.814 40.9705C125.226 40.9705 124.718 40.8474 124.289 40.6012C123.861 40.3551 123.527 40.0097 123.289 39.565C123.059 39.1124 122.943 38.5764 122.943 37.9571C122.943 37.3377 123.059 36.8057 123.289 36.361C123.527 35.9084 123.861 35.559 124.289 35.3129C124.718 35.0667 125.226 34.9436 125.814 34.9436C126.386 34.9436 126.886 35.0667 127.315 35.3129C127.744 35.559 128.077 35.9084 128.315 36.361C128.553 36.8057 128.673 37.3377 128.673 37.9571C128.673 38.5764 128.553 39.1124 128.315 39.565C128.077 40.0097 127.744 40.3551 127.315 40.6012C126.886 40.8474 126.386 40.9705 125.814 40.9705ZM125.814 40.0414C126.306 40.0414 126.703 39.8628 127.005 39.5055C127.307 39.1481 127.458 38.632 127.458 37.9571C127.458 37.2821 127.307 36.7699 127.005 36.4206C126.703 36.0632 126.306 35.8846 125.814 35.8846C125.314 35.8846 124.913 36.0632 124.611 36.4206C124.309 36.7699 124.158 37.2821 124.158 37.9571C124.158 38.632 124.309 39.1481 124.611 39.5055C124.913 39.8628 125.314 40.0414 125.814 40.0414ZM131.953 40.9705C131.366 40.9705 130.857 40.8474 130.429 40.6012C130 40.3551 129.666 40.0097 129.428 39.565C129.198 39.1124 129.083 38.5764 129.083 37.9571C129.083 37.3377 129.198 36.8057 129.428 36.361C129.666 35.9084 130 35.559 130.429 35.3129C130.857 35.0667 131.366 34.9436 131.953 34.9436C132.525 34.9436 133.025 35.0667 133.454 35.3129C133.883 35.559 134.216 35.9084 134.454 36.361C134.693 36.8057 134.812 37.3377 134.812 37.9571C134.812 38.5764 134.693 39.1124 134.454 39.565C134.216 40.0097 133.883 40.3551 133.454 40.6012C133.025 40.8474 132.525 40.9705 131.953 40.9705ZM131.953 40.0414C132.445 40.0414 132.842 39.8628 133.144 39.5055C133.446 39.1481 133.597 38.632 133.597 37.9571C133.597 37.2821 133.446 36.7699 133.144 36.4206C132.842 36.0632 132.445 35.8846 131.953 35.8846C131.453 35.8846 131.052 36.0632 130.75 36.4206C130.448 36.7699 130.298 37.2821 130.298 37.9571C130.298 38.632 130.448 39.1481 130.75 39.5055C131.052 39.8628 131.453 40.0414 131.953 40.0414ZM135.567 40.8633V35.0508H136.734V36.0871C137.036 35.3962 137.664 35.0111 138.616 34.9317L139.009 34.9079L139.093 35.9322L138.366 36.0037C137.31 36.1069 136.782 36.6508 136.782 37.6355V40.8633H135.567ZM141.394 40.9705C140.917 40.9705 140.472 40.9109 140.06 40.7918C139.647 40.6648 139.301 40.4901 139.023 40.2677L139.369 39.4578C139.663 39.6643 139.984 39.8231 140.333 39.9342C140.691 40.0454 141.048 40.101 141.405 40.101C141.826 40.101 142.144 40.0256 142.358 39.8747C142.573 39.7238 142.68 39.5213 142.68 39.2672C142.68 39.0608 142.608 38.902 142.466 38.7908C142.323 38.6717 142.108 38.5804 141.822 38.5169L140.691 38.2906C139.69 38.0841 139.19 37.568 139.19 36.7422C139.19 36.1943 139.408 35.7575 139.845 35.432C140.282 35.1064 140.854 34.9436 141.56 34.9436C141.965 34.9436 142.35 35.0032 142.716 35.1223C143.089 35.2414 143.399 35.4201 143.645 35.6583L143.299 36.4682C143.061 36.2618 142.787 36.1029 142.477 35.9918C142.168 35.8806 141.862 35.825 141.56 35.825C141.147 35.825 140.834 35.9044 140.619 36.0632C140.405 36.2141 140.298 36.4206 140.298 36.6826C140.298 37.0796 140.56 37.3337 141.084 37.4449L142.215 37.6712C142.732 37.7744 143.121 37.9491 143.383 38.1953C143.653 38.4414 143.788 38.7749 143.788 39.1958C143.788 39.7516 143.569 40.1883 143.133 40.506C142.696 40.8156 142.116 40.9705 141.394 40.9705ZM146.95 40.9705C146.219 40.9705 145.675 40.7839 145.318 40.4107C144.961 40.0375 144.782 39.4975 144.782 38.7908V35.9799H143.651V35.0508H144.782V33.2999H145.985V35.0508H147.784V35.9799H145.985V38.6955C145.985 39.1164 146.072 39.434 146.247 39.6484C146.43 39.8628 146.724 39.97 147.128 39.97C147.256 39.97 147.379 39.9581 147.498 39.9342C147.617 39.9025 147.736 39.8667 147.855 39.827L148.046 40.7323C147.927 40.8037 147.76 40.8593 147.545 40.899C147.339 40.9467 147.14 40.9705 146.95 40.9705ZM150.896 40.9705C149.944 40.9705 149.193 40.7045 148.645 40.1725C148.097 39.6325 147.824 38.898 147.824 37.969C147.824 37.3734 147.943 36.8494 148.181 36.3967C148.427 35.9362 148.764 35.5789 149.193 35.3248C149.622 35.0707 150.114 34.9436 150.67 34.9436C151.472 34.9436 152.103 35.2017 152.564 35.7178C153.025 36.226 153.255 36.9288 153.255 37.826V38.231H148.991C149.078 39.438 149.717 40.0414 150.908 40.0414C151.242 40.0414 151.567 39.9898 151.885 39.8866C152.211 39.7834 152.516 39.6127 152.802 39.3744L153.16 40.2082C152.897 40.4464 152.56 40.633 152.147 40.768C151.734 40.903 151.317 40.9705 150.896 40.9705ZM150.718 35.7893C150.218 35.7893 149.821 35.9441 149.527 36.2538C149.233 36.5635 149.054 36.9764 148.991 37.4925H152.242C152.219 36.9526 152.076 36.5357 151.814 36.2419C151.552 35.9402 151.186 35.7893 150.718 35.7893ZM153.971 43.0072V35.0508H155.15V36.0394C155.317 35.7059 155.571 35.4399 155.912 35.2414C156.254 35.0429 156.647 34.9436 157.091 34.9436C157.608 34.9436 158.056 35.0667 158.437 35.3129C158.826 35.559 159.124 35.9084 159.331 36.361C159.545 36.8057 159.652 37.3377 159.652 37.9571C159.652 38.5764 159.545 39.1124 159.331 39.565C159.124 40.0176 158.826 40.367 158.437 40.6132C158.056 40.8514 157.608 40.9705 157.091 40.9705C156.663 40.9705 156.277 40.8792 155.936 40.6965C155.603 40.506 155.348 40.2479 155.174 39.9223V43.0072H153.971ZM156.794 40.0414C157.294 40.0414 157.691 39.8628 157.985 39.5055C158.286 39.1481 158.437 38.632 158.437 37.9571C158.437 37.2821 158.286 36.7699 157.985 36.4206C157.691 36.0632 157.294 35.8846 156.794 35.8846C156.293 35.8846 155.892 36.0632 155.591 36.4206C155.297 36.7699 155.15 37.2821 155.15 37.9571C155.15 38.632 155.297 39.1481 155.591 39.5055C155.892 39.8628 156.293 40.0414 156.794 40.0414Z" fill="#FF752C"/>
</svg>
