<svg width="718" height="138" viewBox="0 0 718 138" fill="none" xmlns="http://www.w3.org/2000/svg">
<g opacity="0.2">
<path d="M0 79.0163L11.4013 98.7989H34.2038L45.469 79.2546H67.7275L78.8568 98.5605L67.5915 118.105L78.9928 137.876H101.795L113.197 118.105L101.931 98.5605L113.061 79.2546H135.591L146.856 59.7104H169.126L180.255 79.0163L168.99 98.5605L180.391 118.332H203.194L214.459 98.7875H236.718L247.983 118.332H270.785L282.051 98.7875H304.581L315.846 79.2433H338.105L349.234 98.5492L337.969 118.093L349.37 137.865H372.173L383.438 118.32H405.98L417.245 98.7762H439.504L450.769 118.32H473.299L484.565 137.865H507.367L518.632 118.32H541.163L552.428 98.7762H574.687L585.952 118.32H608.754L620.156 98.5492L608.89 79.0049L620.02 59.699H642.278L653.407 79.0049L642.142 98.5492L653.543 118.32H676.346L687.611 98.7762H709.87L721.135 118.32H743.665L754.931 137.865H777.733L789.134 118.093L777.869 98.5492L788.998 79.2433H811.257L822.522 98.7875H845.325L856.59 79.2433H879.12L890.522 59.4607L879.12 39.6781H856.318L845.053 59.2223H822.794L811.665 39.9051L822.93 20.3722L811.529 0.5896H788.726L777.325 20.3722L788.59 39.9051L777.461 59.2223H754.931L743.665 78.7666H721.407L710.278 59.4607L721.543 39.9164L710.142 20.1452H687.339L676.074 39.6781H653.815L642.55 20.1452H619.748L608.471 39.6781H585.94L574.675 59.2223H552.417L541.287 39.9051L552.553 20.3722L541.151 0.5896H518.349L507.084 20.1338H484.553L473.288 39.6667H451.029L439.764 20.1338H417.222L405.957 0.5896H383.155L371.889 20.1338H349.359L338.094 39.6667H315.835L304.57 20.1338H281.767L270.366 39.9051L281.631 59.4493L270.502 78.7552H248.244L237.103 59.4493L248.368 39.9051L236.967 20.1338H214.164L202.899 39.6667H180.641L169.375 20.1338H146.845L135.58 0.5896H112.777L101.376 20.3722L112.641 39.9051L101.512 59.2223H79.2534L67.9882 39.6781H45.1857L33.9204 59.2223H11.4013L0 79.0163ZM78.8568 59.472L73.2921 69.1307L67.7275 78.7893H45.469L39.9044 69.1307L34.3398 59.472L45.469 40.1661H67.7275L78.8568 59.472ZM146.448 20.3835L140.884 30.0308L135.319 39.6781H113.061L101.931 20.3722L113.061 1.06629H135.319L146.448 20.3722V20.3835ZM180.255 39.9164L174.691 49.5751L169.126 59.2337H146.856L141.292 49.5751L135.727 39.9164L141.292 30.2691L146.856 20.6219H169.126L180.255 39.9278V39.9164ZM247.847 39.9164L236.718 59.2337H214.459L208.895 49.5751L203.33 39.9164L214.459 20.6105H236.718L247.847 39.9164ZM247.847 79.0049L242.282 88.6636L236.718 98.3222H214.459L208.895 88.6636L203.33 79.0049L208.895 69.3576L214.459 59.7104H236.718L247.847 79.0163V79.0049ZM315.45 39.9164L309.885 49.5751L304.32 59.2337H282.062L270.933 39.9164L282.062 20.6105H304.32L315.45 39.9164ZM310.293 69.1193L304.728 59.4607L310.293 49.8021L315.858 40.1434H338.116L343.681 49.8021L349.246 59.4607L343.681 69.1193L338.116 78.7779H315.858L310.293 69.1193ZM349.653 20.6219H371.912L377.477 30.2691L383.041 39.9164L371.912 59.2337H349.653L344.089 49.5751L338.524 39.9164L349.653 20.6105V20.6219ZM372.32 59.472L383.449 40.1661H405.719L416.848 59.472L405.719 78.7779H383.449L372.32 59.472ZM411.68 88.6636L406.116 79.0049L417.245 59.699H439.504L450.633 79.0049L444.422 89.7758L439.492 98.3222H417.234L411.669 88.6636H411.68ZM451.041 78.7779L439.9 59.472L451.041 40.1548H473.299L478.864 49.8134L484.429 59.4607L473.299 78.7666H451.041V78.7779ZM473.707 79.0163L484.837 59.7104H507.095L518.224 79.0163L507.095 98.3222H484.825L473.696 79.0163H473.707ZM416.837 20.3835L405.708 39.6894H383.438L377.873 30.0422L372.309 20.3949L383.438 1.08899H405.708L416.837 20.3949V20.3835ZM450.633 39.9278L439.504 59.2337H417.245L406.116 39.9278L416.973 21.0872L417.245 20.6219H439.515L450.644 39.9278H450.633ZM484.837 20.6219H507.095L512.66 30.2691L518.224 39.9164L512.66 49.5751L507.095 59.2337H484.837L479.272 49.5751L473.707 39.9164L484.837 20.6105V20.6219ZM552.031 20.3835L540.902 39.6894H518.644L513.079 30.0422L507.514 20.3949L518.644 1.08899H540.902L552.031 20.3949V20.3835ZM552.031 59.472L546.467 69.1307L540.902 78.7893H518.644L507.514 59.4834L513.079 49.8361L518.644 40.1775H540.902L552.031 59.4834V59.472ZM546.875 88.6749L541.31 79.0163L546.875 69.3576L552.439 59.7104H574.698L580.263 69.3576L585.827 79.0163L580.263 88.6749L574.698 98.3335H552.439L546.875 88.6749ZM653.43 39.9278L647.865 49.5864L642.301 59.245H620.042L614.478 49.5864L608.913 39.9278L620.042 20.6219H642.301L653.43 39.9278ZM721.033 39.9278L709.904 59.245H687.645L682.081 49.5864L676.516 39.9278L687.645 20.6219H709.904L721.033 39.9278ZM721.033 79.0163L715.468 88.6749L709.904 98.3335H687.645L682.081 88.6749L676.516 79.0163L682.081 69.3576L687.645 59.7104H709.904L721.033 79.0163ZM822.431 20.3835L811.302 39.6894H789.044L777.914 20.3835L789.044 1.07763H811.302L822.431 20.3835ZM822.431 59.472L816.867 69.1307L811.302 78.7893H789.044L783.479 69.1307L777.914 59.472L789.044 40.1661H811.302L822.431 59.472ZM878.894 78.7779H856.635L851.071 69.1193L845.506 59.4607L856.635 40.1548H878.894L890.023 59.4607L878.894 78.7666V78.7779ZM811.699 79.0163L817.263 69.3576L822.828 59.7104H845.087L850.651 69.3576L856.216 79.0163L845.087 98.3222H822.828L811.699 79.0163ZM788.624 79.0163L777.495 98.3222H755.237L749.672 88.6636L744.107 79.0049L755.237 59.699H777.495L783.06 69.3463L788.624 79.0049V79.0163ZM744.096 118.105L749.661 108.446L755.225 98.7989H777.484L788.613 118.105L777.484 137.411H755.225L744.096 118.105ZM710.3 98.5605L715.865 88.9019L721.43 79.2433H743.688L749.253 88.9019L754.817 98.5605L749.253 108.219L743.688 117.866H721.43L710.3 98.5605ZM642.697 98.5605L653.827 79.2546H676.085L681.65 88.9132L687.214 98.5719L676.085 117.878H653.827L642.697 98.5719V98.5605ZM642.697 59.472L648.262 49.8248L653.827 40.1661H676.085L681.65 49.8248L687.214 59.472L681.65 69.1307L676.085 78.7893H653.827L642.697 59.4834V59.472ZM619.623 59.472L608.494 78.7779H586.235L580.67 69.1193L575.106 59.4607L586.235 40.1548H608.494L614.058 49.8134L619.623 59.4607V59.472ZM575.095 98.5605L580.659 88.9019L586.224 79.2433H608.482L619.612 98.5492L608.482 117.855H586.224L575.095 98.5492V98.5605ZM540.891 117.866H518.632L513.068 108.219L507.503 98.5605L518.632 79.2546H540.891L546.455 88.9132L552.02 98.5719L540.891 117.878V117.866ZM473.696 118.105L476.609 113.065L484.837 98.7989H507.095L512.66 108.446L518.224 118.105L507.095 137.411H484.837L473.707 118.105H473.696ZM439.9 98.5719L444.921 89.8553L451.029 79.266H473.288L484.417 98.5719L473.288 117.878H451.029L439.9 98.5719ZM405.696 117.878H383.427L377.862 108.23L372.297 98.5719L377.862 88.9132L383.427 79.2546H405.696L411.261 88.9132L416.826 98.5719L405.696 117.878ZM338.502 118.116L349.631 98.8102H371.889L377.454 108.457L383.019 118.116L371.889 137.422H349.631L338.502 118.116ZM338.502 79.0276L344.066 69.3803L349.631 59.7331H371.889L383.019 79.039L377.454 88.6976L371.889 98.3562H349.631L338.502 79.0503V79.0276ZM304.298 98.3335H282.039L276.475 88.6749L270.91 79.0163L282.039 59.7104H304.298L309.862 69.3576L315.427 79.0049L304.298 98.3108V98.3335ZM237.103 98.5719L242.668 88.9132L248.232 79.2546H270.491L276.055 88.9132L281.62 98.5719L270.491 117.878H248.232L237.092 98.5719H237.103ZM169.511 98.5719L180.641 79.266H202.899L208.464 88.9246L214.028 98.5832L202.899 117.889H180.641L169.511 98.5832V98.5719ZM169.511 59.4834L175.076 49.8248L180.641 40.1661H202.899L208.464 49.8248L214.028 59.4834L208.464 69.142L202.899 78.8006H180.641L169.511 59.4947V59.4834ZM135.308 78.7893H113.049L107.485 69.1307L101.92 59.472L113.049 40.1661H135.308L140.872 49.8248L146.437 59.4834L135.308 78.7893ZM68.1128 118.105L79.2421 98.7989H101.501L112.63 118.105L101.501 137.411H79.2421L68.1128 118.105ZM68.1128 79.0163L73.6775 69.369L79.2421 59.7217H101.501L107.065 69.369L112.63 79.0163L101.501 98.3222H79.2421L68.1128 79.0163ZM0.52133 79.0163L11.6506 59.7104H33.9091L39.4737 69.3576L45.0383 79.0049L33.9091 98.3108H11.6733L0.543996 79.0163H0.52133Z" fill="#00856F" fill-opacity="0.5"/>
<path opacity="0.8" d="M675.326 77.4385L685.685 59.4719L675.326 41.5166H654.621L644.262 59.4719L654.621 77.4385H675.326Z" fill="#00856F" fill-opacity="0.5"/>
<path opacity="0.3" d="M742.929 116.527L753.276 98.5605L742.929 80.6052H722.212L711.864 98.5605L722.212 116.527H742.929Z" fill="#00856F" fill-opacity="0.5"/>
<path opacity="0.3" d="M675.326 116.527L685.685 98.5605L675.326 80.6052H654.621L644.262 98.5605L654.621 116.527H675.326Z" fill="#00856F" fill-opacity="0.5"/>
<path opacity="0.5" d="M709.133 96.9829L719.481 79.0163L709.133 61.061H688.416L678.058 79.0163L688.416 96.9829H709.133Z" fill="#00856F" fill-opacity="0.5"/>
<path opacity="0.8" d="M709.133 57.8943L719.481 39.9277L709.133 21.9724H688.416L678.058 39.9277L688.416 57.8943H709.133Z" fill="#00856F" fill-opacity="0.5"/>
<path opacity="0.5" d="M641.53 57.8943L651.889 39.9277L641.53 21.9724H620.825L610.466 39.9277L620.825 57.8943H641.53Z" fill="#00856F" fill-opacity="0.5"/>
<path opacity="0.3" d="M573.939 96.9829L584.286 79.0163L573.939 61.061H553.222L542.863 79.0163L553.222 96.9829H573.939Z" fill="#00856F" fill-opacity="0.5"/>
<path opacity="0.5" d="M607.734 116.527L618.093 98.5605L607.734 80.6052H587.017L576.67 98.5605L587.017 116.527H607.734Z" fill="#00856F" fill-opacity="0.5"/>
<path opacity="0.8" d="M506.335 136.06L516.694 118.105L506.335 100.138H485.63L475.271 118.105L485.63 136.06H506.335Z" fill="#00856F" fill-opacity="0.5"/>
<path opacity="0.8" d="M472.54 77.4385L482.898 59.4719L472.54 41.5166H451.822L441.475 59.4719L451.822 77.4385H472.54Z" fill="#00856F" fill-opacity="0.5"/>
<path opacity="0.5" d="M540.132 116.527L550.49 98.5605L540.132 80.6052H519.426L509.067 98.5605L519.426 116.527H540.132Z" fill="#00856F" fill-opacity="0.5"/>
<path opacity="0.5" d="M506.335 57.8943L516.694 39.9277L506.335 21.9724H485.63L475.271 39.9277L485.63 57.8943H506.335Z" fill="#00856F" fill-opacity="0.5"/>
<path opacity="0.8" d="M540.132 77.4385L550.49 59.4719L540.132 41.5166H519.426L509.067 59.4719L519.426 77.4385H540.132Z" fill="#00856F" fill-opacity="0.5"/>
<path opacity="0.3" d="M540.132 38.3501L550.49 20.3949L540.132 2.42822H519.426L509.067 20.3949L519.426 38.3501H540.132Z" fill="#00856F" fill-opacity="0.5"/>
<path opacity="0.8" d="M607.734 77.4385L618.093 59.4719L607.734 41.5166H587.017L576.67 59.4719L587.017 77.4385H607.734Z" fill="#00856F" fill-opacity="0.5"/>
<path opacity="0.8" d="M33.1611 96.9828L43.5197 79.0162L33.1611 61.0496H12.4439L2.09668 79.0162L12.4439 96.9828H33.1611Z" fill="#00856F" fill-opacity="0.5"/>
<path opacity="0.5" d="M66.957 77.4385L77.3156 59.4719L66.957 41.5166H46.2512L35.8926 59.4719L46.2512 77.4385H66.957Z" fill="#00856F" fill-opacity="0.5"/>
<path opacity="0.8" d="M235.947 96.9828L246.306 79.0162L235.947 61.0496H215.241L204.883 79.0162L215.241 96.9828H235.947Z" fill="#00856F" fill-opacity="0.5"/>
<path opacity="0.8" d="M134.56 38.3501L144.907 20.3949L134.56 2.42822H113.842L103.484 20.3949L113.842 38.3501H134.56Z" fill="#00856F" fill-opacity="0.5"/>
<path opacity="0.8" d="M100.753 96.9828L111.111 79.0162L100.753 61.0496H80.0468L69.6882 79.0162L80.0468 96.9828H100.753Z" fill="#00856F" fill-opacity="0.5"/>
<path opacity="0.5" d="M100.753 136.06L111.111 118.105L100.753 100.138H80.0468L69.6882 118.105L80.0468 136.06H100.753Z" fill="#00856F" fill-opacity="0.5"/>
<path opacity="0.5" d="M134.56 77.4385L144.907 59.4719L134.56 41.5166H113.842L103.484 59.4719L113.842 77.4385H134.56Z" fill="#00856F" fill-opacity="0.5"/>
<path opacity="0.3" d="M168.356 57.8943L178.714 39.9277L168.356 21.9724H147.639L137.291 39.9277L147.639 57.8943H168.356Z" fill="#00856F" fill-opacity="0.5"/>
<path opacity="0.3" d="M235.947 57.8943L246.306 39.9277L235.947 21.9724H215.241L204.883 39.9277L215.241 57.8943H235.947Z" fill="#00856F" fill-opacity="0.5"/>
<path opacity="0.5" d="M202.151 77.4385L212.51 59.4719L202.151 41.5166H181.446L171.087 59.4719L181.446 77.4385H202.151Z" fill="#00856F" fill-opacity="0.5"/>
<path opacity="0.8" d="M202.151 116.527L212.51 98.5604L202.151 80.5938H181.446L171.087 98.5604L181.446 116.527H202.151Z" fill="#00856F" fill-opacity="0.5"/>
<path opacity="0.5" d="M269.754 116.527L280.101 98.5604L269.754 80.5938H249.037L238.678 98.5604L249.037 116.527H269.754Z" fill="#00856F" fill-opacity="0.5"/>
<path opacity="0.3" d="M337.346 77.4385L347.704 59.4719L337.346 41.5166H316.64L306.281 59.4719L316.64 77.4385H337.346Z" fill="#00856F" fill-opacity="0.5"/>
<path opacity="0.5" d="M303.55 57.8943L313.909 39.9277L303.55 21.9724H282.833L272.486 39.9277L282.833 57.8943H303.55Z" fill="#00856F" fill-opacity="0.5"/>
<path opacity="0.8" d="M404.949 38.3501L415.296 20.3949L404.949 2.42822H384.231L373.873 20.3949L384.231 38.3501H404.949Z" fill="#00856F" fill-opacity="0.5"/>
<path opacity="0.8" d="M438.745 57.8943L449.103 39.939L438.745 21.9724H418.027L407.68 39.939L418.027 57.8943H438.745Z" fill="#00856F" fill-opacity="0.5"/>
<path opacity="0.8" d="M472.54 116.527L482.898 98.5605L472.54 80.6052H451.822L441.475 98.5605L451.822 116.527H472.54Z" fill="#00856F" fill-opacity="0.5"/>
<path opacity="0.8" d="M438.745 96.9828L449.103 79.0162L438.745 61.0496H418.027L407.68 79.0162L418.027 96.9828H438.745Z" fill="#00856F" fill-opacity="0.5"/>
<path opacity="0.5" d="M371.142 57.8943L381.5 39.9277L371.142 21.9724H350.436L340.077 39.9277L350.436 57.8943H371.142Z" fill="#00856F" fill-opacity="0.5"/>
<path opacity="0.5" d="M404.949 116.527L415.296 98.5604L404.949 80.5938H384.231L373.873 98.5604L384.231 116.527H404.949Z" fill="#00856F" fill-opacity="0.5"/>
<path opacity="0.8" d="M371.142 96.9828L381.5 79.0162L371.142 61.0496H350.436L340.077 79.0162L350.436 96.9828H371.142Z" fill="#00856F" fill-opacity="0.5"/>
<path opacity="0.3" d="M371.142 136.06L381.5 118.105L371.142 100.138H350.436L340.077 118.105L350.436 136.06H371.142Z" fill="#00856F" fill-opacity="0.5"/>
<path opacity="0.8" d="M303.55 96.9828L313.909 79.0162L303.55 61.0496H282.833L272.486 79.0162L282.833 96.9828H303.55Z" fill="#00856F" fill-opacity="0.5"/>
</g>
</svg>
