<svg width="718" height="138" viewBox="0 0 718 138" fill="none" xmlns="http://www.w3.org/2000/svg">
<g opacity="0.2">
<path d="M-173 79.0163L-161.599 98.7989H-138.796L-127.531 79.2546H-105.272L-94.1432 98.5605L-105.408 118.105L-94.0072 137.876H-71.2047L-59.8035 118.105L-71.0687 98.5605L-59.9395 79.2546H-37.409L-26.1437 59.7104H-3.87389L7.25539 79.0163L-4.00987 98.5605L7.39137 118.332H30.1939L41.4591 98.7875H63.7176L74.9829 118.332H97.7854L109.051 98.7875H131.581L142.846 79.2433H165.105L176.234 98.5492L164.969 118.093L176.37 137.865H199.173L210.438 118.32H232.98L244.245 98.7762H266.504L277.769 118.32H300.299L311.565 137.865H334.367L345.632 118.32H368.163L379.428 98.7762H401.687L412.952 118.32H435.754L447.156 98.5492L435.89 79.0049L447.02 59.699H469.278L480.407 79.0049L469.142 98.5492L480.543 118.32H503.346L514.611 98.7762H536.87L548.135 118.32H570.665L581.931 137.865H604.733L616.134 118.093L604.869 98.5492L615.998 79.2433H638.257L649.522 98.7875H672.325L683.59 79.2433H706.12L717.522 59.4607L706.12 39.6781H683.318L672.053 59.2223H649.794L638.665 39.9051L649.93 20.3722L638.529 0.5896H615.726L604.325 20.3722L615.59 39.9051L604.461 59.2223H581.931L570.665 78.7666H548.407L537.278 59.4607L548.543 39.9164L537.142 20.1452H514.339L503.074 39.6781H480.815L469.55 20.1452H446.748L435.471 39.6781H412.94L401.675 59.2223H379.417L368.287 39.9051L379.553 20.3722L368.151 0.5896H345.349L334.084 20.1338H311.553L300.288 39.6667H278.029L266.764 20.1338H244.222L232.957 0.5896H210.155L198.889 20.1338H176.359L165.094 39.6667H142.835L131.57 20.1338H108.767L97.3661 39.9051L108.631 59.4493L97.502 78.7552H75.2435L64.103 59.4493L75.3682 39.9051L63.967 20.1338H41.1645L29.8992 39.6667H7.6407L-3.62454 20.1338H-26.155L-37.4203 0.5896H-60.2228L-71.6241 20.3722L-60.3588 39.9051L-71.4881 59.2223H-93.7466L-105.012 39.6781H-127.814L-139.08 59.2223H-161.599L-173 79.0163ZM-94.1432 59.472L-99.7079 69.1307L-105.272 78.7893H-127.531L-133.096 69.1307L-138.66 59.472L-127.531 40.1661H-105.272L-94.1432 59.472ZM-26.5517 20.3835L-32.1163 30.0308L-37.681 39.6781H-59.9395L-71.0687 20.3722L-59.9395 1.06629H-37.681L-26.5517 20.3722V20.3835ZM7.25539 39.9164L1.69075 49.5751L-3.87389 59.2337H-26.1437L-31.7083 49.5751L-37.273 39.9164L-31.7083 30.2691L-26.1437 20.6219H-3.87389L7.25539 39.9278V39.9164ZM74.8469 39.9164L63.7176 59.2337H41.4591L35.8945 49.5751L30.3299 39.9164L41.4591 20.6105H63.7176L74.8469 39.9164ZM74.8469 79.0049L69.2823 88.6636L63.7176 98.3222H41.4591L35.8945 88.6636L30.3299 79.0049L35.8945 69.3576L41.4591 59.7104H63.7176L74.8469 79.0163V79.0049ZM142.45 39.9164L136.885 49.5751L131.32 59.2337H109.062L97.9327 39.9164L109.062 20.6105H131.32L142.45 39.9164ZM137.293 69.1193L131.728 59.4607L137.293 49.8021L142.858 40.1434H165.116L170.681 49.8021L176.246 59.4607L170.681 69.1193L165.116 78.7779H142.858L137.293 69.1193ZM176.653 20.6219H198.912L204.477 30.2691L210.041 39.9164L198.912 59.2337H176.653L171.089 49.5751L165.524 39.9164L176.653 20.6105V20.6219ZM199.32 59.472L210.449 40.1661H232.719L243.848 59.472L232.719 78.7779H210.449L199.32 59.472ZM238.68 88.6636L233.116 79.0049L244.245 59.699H266.504L277.633 79.0049L271.422 89.7758L266.492 98.3222H244.234L238.669 88.6636H238.68ZM278.041 78.7779L266.9 59.472L278.041 40.1548H300.299L305.864 49.8134L311.429 59.4607L300.299 78.7666H278.041V78.7779ZM300.707 79.0163L311.837 59.7104H334.095L345.224 79.0163L334.095 98.3222H311.825L300.696 79.0163H300.707ZM243.837 20.3835L232.708 39.6894H210.438L204.873 30.0422L199.309 20.3949L210.438 1.08899H232.708L243.837 20.3949V20.3835ZM277.633 39.9278L266.504 59.2337H244.245L233.116 39.9278L243.973 21.0872L244.245 20.6219H266.515L277.644 39.9278H277.633ZM311.837 20.6219H334.095L339.66 30.2691L345.224 39.9164L339.66 49.5751L334.095 59.2337H311.837L306.272 49.5751L300.707 39.9164L311.837 20.6105V20.6219ZM379.031 20.3835L367.902 39.6894H345.644L340.079 30.0422L334.514 20.3949L345.644 1.08899H367.902L379.031 20.3949V20.3835ZM379.031 59.472L373.467 69.1307L367.902 78.7893H345.644L334.514 59.4834L340.079 49.8361L345.644 40.1775H367.902L379.031 59.4834V59.472ZM373.875 88.6749L368.31 79.0163L373.875 69.3576L379.439 59.7104H401.698L407.263 69.3576L412.827 79.0163L407.263 88.6749L401.698 98.3335H379.439L373.875 88.6749ZM480.43 39.9278L474.865 49.5864L469.301 59.245H447.042L441.478 49.5864L435.913 39.9278L447.042 20.6219H469.301L480.43 39.9278ZM548.033 39.9278L536.904 59.245H514.645L509.081 49.5864L503.516 39.9278L514.645 20.6219H536.904L548.033 39.9278ZM548.033 79.0163L542.468 88.6749L536.904 98.3335H514.645L509.081 88.6749L503.516 79.0163L509.081 69.3576L514.645 59.7104H536.904L548.033 79.0163ZM649.431 20.3835L638.302 39.6894H616.044L604.914 20.3835L616.044 1.07763H638.302L649.431 20.3835ZM649.431 59.472L643.867 69.1307L638.302 78.7893H616.044L610.479 69.1307L604.914 59.472L616.044 40.1661H638.302L649.431 59.472ZM705.894 78.7779H683.635L678.071 69.1193L672.506 59.4607L683.635 40.1548H705.894L717.023 59.4607L705.894 78.7666V78.7779ZM638.699 79.0163L644.263 69.3576L649.828 59.7104H672.087L677.651 69.3576L683.216 79.0163L672.087 98.3222H649.828L638.699 79.0163ZM615.624 79.0163L604.495 98.3222H582.237L576.672 88.6636L571.107 79.0049L582.237 59.699H604.495L610.06 69.3463L615.624 79.0049V79.0163ZM571.096 118.105L576.661 108.446L582.225 98.7989H604.484L615.613 118.105L604.484 137.411H582.225L571.096 118.105ZM537.3 98.5605L542.865 88.9019L548.43 79.2433H570.688L576.253 88.9019L581.817 98.5605L576.253 108.219L570.688 117.866H548.43L537.3 98.5605ZM469.697 98.5605L480.827 79.2546H503.085L508.65 88.9132L514.214 98.5719L503.085 117.878H480.827L469.697 98.5719V98.5605ZM469.697 59.472L475.262 49.8248L480.827 40.1661H503.085L508.65 49.8248L514.214 59.472L508.65 69.1307L503.085 78.7893H480.827L469.697 59.4834V59.472ZM446.623 59.472L435.494 78.7779H413.235L407.67 69.1193L402.106 59.4607L413.235 40.1548H435.494L441.058 49.8134L446.623 59.4607V59.472ZM402.095 98.5605L407.659 88.9019L413.224 79.2433H435.482L446.612 98.5492L435.482 117.855H413.224L402.095 98.5492V98.5605ZM367.891 117.866H345.632L340.068 108.219L334.503 98.5605L345.632 79.2546H367.891L373.455 88.9132L379.02 98.5719L367.891 117.878V117.866ZM300.696 118.105L303.609 113.065L311.837 98.7989H334.095L339.66 108.446L345.224 118.105L334.095 137.411H311.837L300.707 118.105H300.696ZM266.9 98.5719L271.921 89.8553L278.029 79.266H300.288L311.417 98.5719L300.288 117.878H278.029L266.9 98.5719ZM232.696 117.878H210.427L204.862 108.23L199.297 98.5719L204.862 88.9132L210.427 79.2546H232.696L238.261 88.9132L243.826 98.5719L232.696 117.878ZM165.502 118.116L176.631 98.8102H198.889L204.454 108.457L210.019 118.116L198.889 137.422H176.631L165.502 118.116ZM165.502 79.0276L171.066 69.3803L176.631 59.7331H198.889L210.019 79.039L204.454 88.6976L198.889 98.3562H176.631L165.502 79.0503V79.0276ZM131.298 98.3335H109.039L103.475 88.6749L97.9101 79.0163L109.039 59.7104H131.298L136.862 69.3576L142.427 79.0049L131.298 98.3108V98.3335ZM64.103 98.5719L69.6676 88.9132L75.2322 79.2546H97.4907L103.055 88.9132L108.62 98.5719L97.4907 117.878H75.2322L64.0916 98.5719H64.103ZM-3.48854 98.5719L7.6407 79.266H29.8992L35.4638 88.9246L41.0285 98.5832L29.8992 117.889H7.6407L-3.48854 98.5832V98.5719ZM-3.48854 59.4834L2.07608 49.8248L7.6407 40.1661H29.8992L35.4638 49.8248L41.0285 59.4834L35.4638 69.142L29.8992 78.8006H7.6407L-3.48854 59.4947V59.4834ZM-37.6923 78.7893H-59.9508L-65.5154 69.1307L-71.0801 59.472L-59.9508 40.1661H-37.6923L-32.1277 49.8248L-26.563 59.4834L-37.6923 78.7893ZM-104.887 118.105L-93.7579 98.7989H-71.4994L-60.3701 118.105L-71.4994 137.411H-93.7579L-104.887 118.105ZM-104.887 79.0163L-99.3225 69.369L-93.7579 59.7217H-71.4994L-65.9348 69.369L-60.3701 79.0163L-71.4994 98.3222H-93.7579L-104.887 79.0163ZM-172.479 79.0163L-161.349 59.7104H-139.091L-133.526 69.3576L-127.962 79.0049L-139.091 98.3108H-161.327L-172.456 79.0163H-172.479Z" fill="#00856F" fill-opacity="0.5"/>
<path opacity="0.8" d="M705.123 77.4385L715.482 59.4719L705.123 41.5166H684.406L674.059 59.4719L684.406 77.4385H705.123Z" fill="#00856F" fill-opacity="0.5"/>
<path opacity="0.5" d="M671.327 96.9829L681.675 79.0163L671.327 61.061H650.61L640.252 79.0163L650.61 96.9829H671.327Z" fill="#00856F" fill-opacity="0.5"/>
<path opacity="0.8" d="M502.326 77.4385L512.685 59.4719L502.326 41.5166H481.621L471.262 59.4719L481.621 77.4385H502.326Z" fill="#00856F" fill-opacity="0.5"/>
<path opacity="0.8" d="M603.725 136.06L614.083 118.105L603.725 100.138H583.019L572.66 118.105L583.019 136.06H603.725Z" fill="#00856F" fill-opacity="0.5"/>
<path opacity="0.8" d="M637.521 77.4385L647.88 59.4719L637.521 41.5166H616.815L606.457 59.4719L616.815 77.4385H637.521Z" fill="#00856F" fill-opacity="0.5"/>
<path opacity="0.5" d="M637.521 38.3501L647.88 20.3949L637.521 2.42822H616.815L606.457 20.3949L616.815 38.3501H637.521Z" fill="#00856F" fill-opacity="0.5"/>
<path opacity="0.5" d="M603.725 96.9829L614.083 79.0163L603.725 61.061H583.019L572.66 79.0163L583.019 96.9829H603.725Z" fill="#00856F" fill-opacity="0.5"/>
<path opacity="0.3" d="M569.929 116.527L580.276 98.5605L569.929 80.6052H549.212L538.864 98.5605L549.212 116.527H569.929Z" fill="#00856F" fill-opacity="0.5"/>
<path opacity="0.3" d="M502.326 116.527L512.685 98.5605L502.326 80.6052H481.621L471.262 98.5605L481.621 116.527H502.326Z" fill="#00856F" fill-opacity="0.5"/>
<path opacity="0.5" d="M536.133 96.9829L546.481 79.0163L536.133 61.061H515.416L505.058 79.0163L515.416 96.9829H536.133Z" fill="#00856F" fill-opacity="0.5"/>
<path opacity="0.8" d="M536.133 57.8943L546.481 39.9277L536.133 21.9724H515.416L505.058 39.9277L515.416 57.8943H536.133Z" fill="#00856F" fill-opacity="0.5"/>
<path opacity="0.5" d="M468.531 57.8943L478.889 39.9277L468.531 21.9724H447.825L437.466 39.9277L447.825 57.8943H468.531Z" fill="#00856F" fill-opacity="0.5"/>
<path opacity="0.3" d="M400.939 96.9829L411.286 79.0163L400.939 61.061H380.222L369.863 79.0163L380.222 96.9829H400.939Z" fill="#00856F" fill-opacity="0.5"/>
<path opacity="0.5" d="M434.734 116.527L445.093 98.5605L434.734 80.6052H414.017L403.67 98.5605L414.017 116.527H434.734Z" fill="#00856F" fill-opacity="0.5"/>
<path opacity="0.8" d="M333.335 136.06L343.694 118.105L333.335 100.138H312.63L302.271 118.105L312.63 136.06H333.335Z" fill="#00856F" fill-opacity="0.5"/>
<path opacity="0.8" d="M299.54 77.4385L309.898 59.4719L299.54 41.5166H278.823L268.475 59.4719L278.823 77.4385H299.54Z" fill="#00856F" fill-opacity="0.5"/>
<path opacity="0.5" d="M367.132 116.527L377.49 98.5605L367.132 80.6052H346.426L336.067 98.5605L346.426 116.527H367.132Z" fill="#00856F" fill-opacity="0.5"/>
<path opacity="0.5" d="M333.335 57.8943L343.694 39.9277L333.335 21.9724H312.63L302.271 39.9277L312.63 57.8943H333.335Z" fill="#00856F" fill-opacity="0.5"/>
<path opacity="0.8" d="M367.132 77.4385L377.49 59.4719L367.132 41.5166H346.426L336.067 59.4719L346.426 77.4385H367.132Z" fill="#00856F" fill-opacity="0.5"/>
<path opacity="0.3" d="M367.132 38.3501L377.49 20.3949L367.132 2.42822H346.426L336.067 20.3949L346.426 38.3501H367.132Z" fill="#00856F" fill-opacity="0.5"/>
<path opacity="0.8" d="M434.734 77.4385L445.093 59.4719L434.734 41.5166H414.017L403.67 59.4719L414.017 77.4385H434.734Z" fill="#00856F" fill-opacity="0.5"/>
<path opacity="0.8" d="M62.9473 96.9828L73.3059 79.0162L62.9473 61.0496H42.2414L31.8828 79.0162L42.2414 96.9828H62.9473Z" fill="#00856F" fill-opacity="0.5"/>
<path opacity="0.3" d="M-4.64417 57.8943L5.71442 39.9277L-4.64417 21.9724H-25.3614L-35.7086 39.9277L-25.3614 57.8943H-4.64417Z" fill="#00856F" fill-opacity="0.5"/>
<path opacity="0.3" d="M62.9473 57.8943L73.3059 39.9277L62.9473 21.9724H42.2414L31.8828 39.9277L42.2414 57.8943H62.9473Z" fill="#00856F" fill-opacity="0.5"/>
<path opacity="0.5" d="M29.1515 77.4385L39.5101 59.4719L29.1515 41.5166H8.44569L-1.9129 59.4719L8.44569 77.4385H29.1515Z" fill="#00856F" fill-opacity="0.5"/>
<path opacity="0.8" d="M29.1515 116.527L39.5101 98.5604L29.1515 80.5938H8.44569L-1.9129 98.5604L8.44569 116.527H29.1515Z" fill="#00856F" fill-opacity="0.5"/>
<path opacity="0.5" d="M96.7541 116.527L107.101 98.5604L96.7541 80.5938H76.0369L65.6783 98.5604L76.0369 116.527H96.7541Z" fill="#00856F" fill-opacity="0.5"/>
<path opacity="0.3" d="M164.346 77.4385L174.704 59.4719L164.346 41.5166H143.64L133.281 59.4719L143.64 77.4385H164.346Z" fill="#00856F" fill-opacity="0.5"/>
<path opacity="0.5" d="M130.55 57.8943L140.909 39.9277L130.55 21.9724H109.833L99.4858 39.9277L109.833 57.8943H130.55Z" fill="#00856F" fill-opacity="0.5"/>
<path opacity="0.8" d="M231.949 38.3501L242.296 20.3949L231.949 2.42822H211.231L200.873 20.3949L211.231 38.3501H231.949Z" fill="#00856F" fill-opacity="0.5"/>
<path opacity="0.8" d="M265.745 57.8943L276.103 39.939L265.745 21.9724H245.027L234.68 39.939L245.027 57.8943H265.745Z" fill="#00856F" fill-opacity="0.5"/>
<path opacity="0.8" d="M299.54 116.527L309.898 98.5605L299.54 80.6052H278.823L268.475 98.5605L278.823 116.527H299.54Z" fill="#00856F" fill-opacity="0.5"/>
<path opacity="0.8" d="M265.745 96.9828L276.103 79.0162L265.745 61.0496H245.027L234.68 79.0162L245.027 96.9828H265.745Z" fill="#00856F" fill-opacity="0.5"/>
<path opacity="0.5" d="M198.142 57.8943L208.5 39.9277L198.142 21.9724H177.436L167.077 39.9277L177.436 57.8943H198.142Z" fill="#00856F" fill-opacity="0.5"/>
<path opacity="0.5" d="M231.949 116.527L242.296 98.5604L231.949 80.5938H211.231L200.873 98.5604L211.231 116.527H231.949Z" fill="#00856F" fill-opacity="0.5"/>
<path opacity="0.8" d="M198.142 96.9828L208.5 79.0162L198.142 61.0496H177.436L167.077 79.0162L177.436 96.9828H198.142Z" fill="#00856F" fill-opacity="0.5"/>
<path opacity="0.3" d="M198.142 136.06L208.5 118.105L198.142 100.138H177.436L167.077 118.105L177.436 136.06H198.142Z" fill="#00856F" fill-opacity="0.5"/>
<path opacity="0.8" d="M130.55 96.9828L140.909 79.0162L130.55 61.0496H109.833L99.4858 79.0162L109.833 96.9828H130.55Z" fill="#00856F" fill-opacity="0.5"/>
</g>
</svg>
