<svg width="16" height="15" viewBox="0 0 16 15" fill="none" xmlns="http://www.w3.org/2000/svg">
<path d="M0.538705 4.97748H3.65545V14.9995H0.538705V4.97748ZM2.09157 -0.000488281C3.09377 -0.000488281 3.89774 0.803476 3.89774 1.80568C3.89774 2.79687 3.09377 3.61185 2.09157 3.61185C1.08937 3.61185 0.2854 2.79687 0.2854 1.80568C0.2854 0.803476 1.10038 -0.000488281 2.09157 -0.000488281Z" fill="white"/>
<path d="M5.60482 4.97742H8.58941V6.34306H8.63346C9.05196 5.55011 10.0652 4.72412 11.585 4.72412C14.7348 4.72412 15.3185 6.7946 15.3185 9.49284V14.9884H12.2017V10.1206C12.2017 8.95319 12.1797 7.46641 10.5828 7.46641C8.96386 7.46641 8.71055 8.73293 8.71055 10.0435V14.9994H5.59381V4.97742H5.60482Z" fill="white"/>
</svg>
